<svg xmlns="http://www.w3.org/2000/svg" fill="none" viewBox="0 0 142 27" height="27" width="142">
<g clip-path="url(#clip0_1104_31)">
<path fill="#000000" d="M10.2476 1.84293C11.3668 1.84501 12.4834 1.95175 13.5827 2.16177C14.6751 2.3629 15.7226 2.75813 16.6755 3.32874C17.6744 3.92704 18.5024 4.77257 19.0796 5.78383C19.7114 6.94039 20.0115 8.249 19.9468 9.56531C19.9457 10.7217 19.7295 11.8678 19.3091 12.945C18.8216 14.0313 18.0368 14.9576 17.0454 15.617L16.5798 15.9422L21.5602 22.9567L14.0291 26.1452L8.47485 16.9625L8.07949 17.0007L8.04122 25.2396H0V1.84293H10.2476ZM8.51311 12.4668C8.88297 12.4668 9.25921 12.4668 9.63544 12.4285C10.0079 12.4077 10.3752 12.3325 10.7259 12.2053C11.1235 12.0787 11.4772 11.8421 11.7462 11.523C12.051 11.1529 12.2058 10.6818 12.1798 10.203C12.2088 9.98138 12.1908 9.75615 12.1271 9.54193C12.0634 9.3277 11.9553 9.12927 11.81 8.95951C11.5448 8.66979 11.2117 8.45063 10.8407 8.32182C10.4993 8.19594 10.1395 8.127 9.77573 8.11776C9.40587 8.11776 9.01688 8.11776 8.59601 8.11776H8.04122V12.4604L8.51311 12.4668Z"></path>
<path fill="#000000" d="M24.0167 22.2744C22.9375 21.1412 22.1001 19.8004 21.5552 18.3335C21.0475 16.8547 20.7993 15.2992 20.8219 13.7358C20.7935 11.9492 21.1548 10.1778 21.8804 8.545C22.5802 7.01623 23.5799 5.64357 24.8202 4.50844C25.9459 3.49535 27.241 2.68808 28.6463 2.1235C30.1474 1.53832 31.7478 1.25028 33.3588 1.27537C34.954 1.25977 36.5404 1.51197 38.0521 2.02147C39.4979 2.52977 40.8209 3.33574 41.9357 4.38728C43.1794 5.56307 44.1671 6.98282 44.8371 8.55775C45.5489 10.1912 45.9158 11.954 45.9148 13.7358C45.9373 15.2992 45.6892 16.8547 45.1815 18.3335C44.6385 19.7999 43.8032 21.1406 42.7264 22.2744C41.5131 23.5711 40.0219 24.5761 38.3646 25.2141C36.708 25.8629 34.9399 26.1792 33.1611 26.1451C31.4665 26.1512 29.7873 25.824 28.219 25.1822C26.6235 24.53 25.1894 23.5377 24.0167 22.2744ZM33.3588 7.6076C32.501 7.58677 31.6546 7.80776 30.9164 8.24529C30.2258 8.6687 29.6308 9.23115 29.1692 9.89689C28.7789 10.4416 28.4975 11.0566 28.3402 11.7079C28.1744 12.3733 28.0908 13.0564 28.0915 13.7421C28.1065 15.2566 28.6047 16.7266 29.5135 17.9381C29.9708 18.5029 30.5396 18.9674 31.1843 19.3028C31.827 19.6043 32.526 19.767 33.2358 19.7802C33.9456 19.7934 34.6503 19.6568 35.3037 19.3793C35.8819 19.1231 36.409 18.7645 36.8597 18.3207C37.4495 17.7265 37.9023 17.0105 38.1861 16.2227C38.4776 15.4282 38.6266 14.5885 38.6261 13.7421C38.6275 13.035 38.5309 12.3311 38.3391 11.6505C38.1549 10.989 37.8477 10.3681 37.4336 9.82037C36.9822 9.16343 36.3951 8.61107 35.7118 8.20065C34.9983 7.78495 34.1844 7.57319 33.3588 7.58847V7.6076Z"></path>
<path fill="#000000" d="M50.3212 22.2744C49.2421 21.1412 48.4046 19.8004 47.8597 18.3335C47.352 16.8547 47.1039 15.2992 47.1264 13.7358C47.1011 11.9494 47.4622 10.1788 48.185 8.545C48.8849 7.01469 49.8871 5.64168 51.1311 4.50844C52.2547 3.49255 53.5503 2.68495 54.9572 2.12349C56.4561 1.53835 58.0545 1.2503 59.6633 1.27537C61.2585 1.25929 62.8451 1.5115 64.3567 2.02146C65.7974 2.52113 67.118 3.31606 68.2338 4.3554C69.4795 5.52949 70.4676 6.94968 71.1353 8.52587C71.8448 10.1706 72.2052 11.9446 72.1939 13.7358C72.2164 15.2992 71.9683 16.8547 71.4605 18.3335C70.9157 19.8004 70.0782 21.1412 68.999 22.2744C67.7869 23.5724 66.2953 24.5777 64.6373 25.2141C62.9928 25.8586 61.238 26.1749 59.472 26.1451C57.7775 26.1507 56.0984 25.8236 54.5299 25.1822C52.9321 24.5308 51.4958 23.5384 50.3212 22.2744ZM59.6633 7.6076C58.8055 7.58677 57.9591 7.80775 57.221 8.24528C56.5333 8.66755 55.9405 9.22773 55.4801 9.89051C55.0924 10.4368 54.8112 11.0511 54.6511 11.7015C54.4853 12.3669 54.4018 13.0501 54.4024 13.7358C54.4174 15.2502 54.9157 16.7202 55.8244 17.9317C56.2832 18.4951 56.8516 18.9594 57.4952 19.2964C58.1379 19.598 58.8369 19.7606 59.5468 19.7738C60.2566 19.787 60.9612 19.6504 61.6146 19.3729C62.1937 19.1183 62.7211 18.7595 63.1706 18.3144C63.7624 17.7217 64.2154 17.0052 64.497 16.2164C64.7886 15.4219 64.9375 14.5821 64.937 13.7358C64.9384 13.0287 64.8419 12.3247 64.65 11.6442C64.4762 10.9835 64.1775 10.3623 63.77 9.81399C63.3217 9.16072 62.739 8.61068 62.061 8.20065C61.3354 7.7747 60.5043 7.56248 59.6633 7.58847V7.6076Z"></path>
<path fill="#000000" d="M90.2215 2.02148L89.9855 8.39835H82.1037V12.6262H88.4487L88.2128 17.7277H82.1037V25.3799H74.0625V2.02148H90.2215Z"></path>
<path fill="#000000" d="M112.922 2.02148V15.9422C112.922 19.3432 112.101 21.879 110.46 23.5498C108.819 25.2205 106.131 26.0368 102.394 25.9985C98.6654 25.9985 95.985 25.1695 94.3525 23.5115C92.72 21.8535 91.9059 19.3304 91.9102 15.9422V3.70498H99.9514V15.3491C99.9514 15.872 99.9514 16.4332 100.028 17.039C100.063 17.584 100.227 18.113 100.506 18.5822C100.696 18.9174 100.975 19.1926 101.314 19.3763C101.652 19.5601 102.035 19.6451 102.419 19.6216C102.803 19.6393 103.183 19.5518 103.521 19.3685C103.858 19.1853 104.139 18.9134 104.332 18.5822C104.61 18.1125 104.772 17.5836 104.804 17.039C104.862 16.4332 104.887 15.872 104.887 15.3491V2.02148H112.922Z"></path>
<path fill="#000000" d="M139.852 3.94095C140.234 4.80652 140.37 5.76046 140.247 6.69845C140.123 7.63643 139.744 8.52233 139.15 9.25926C138.698 9.7912 138.141 10.2255 137.515 10.5357C136.889 10.846 136.207 11.0257 135.509 11.0639C134.776 11.1085 134.572 10.7387 135.21 10.3943C136.318 9.82973 137.228 8.94235 137.821 7.84938C138.415 6.75641 138.662 5.50925 138.532 4.27255C138.43 3.44356 138.596 3.2395 138.781 3.13747C139.093 2.95891 139.508 3.29689 139.852 3.94095Z"></path>
<path fill="#000000" d="M141.988 10.0181C141.951 10.5769 141.755 11.1136 141.425 11.5653C141.094 12.0171 140.641 12.3652 140.119 12.5688C139.637 12.801 139.107 12.9168 138.572 12.9068C138.037 12.8968 137.512 12.7614 137.039 12.5114C136.446 12.2181 136.21 11.574 136.708 11.6761C137.553 11.8774 138.441 11.7851 139.227 11.4142C140.013 11.0433 140.649 10.416 141.031 9.63546C141.318 9.12531 141.497 9.08068 141.669 9.09981C141.898 9.14445 142.039 9.50155 141.988 10.0181Z"></path>
<path fill="#000000" d="M124.405 7.76707C125.629 8.45578 127.332 9.80767 128.735 10.2604C133.715 11.8738 137.127 7.83722 136.196 4.04936C135.265 0.261505 130.654 -1.27532 130.552 1.23717C130.501 2.67834 129.997 2.93341 125.074 1.62615C122.434 0.918322 119.692 1.16702 117.652 2.49341C116.359 3.35817 115.359 4.59431 114.782 6.03894C114.322 7.11713 114.156 8.29849 114.303 9.46173C114.45 10.625 114.903 11.7282 115.618 12.6581C117.531 15.126 123.761 16.0506 125.483 16.7266C127.338 17.4599 127.396 18.493 126.445 19.2135C125.132 20.202 122.785 19.6599 122.262 19.5324C120.703 19.124 119.345 18.166 118.436 16.835L113.086 20.8014C114.391 22.4327 116.038 23.7578 117.912 24.6833C119.785 25.6089 121.838 26.1122 123.927 26.1579C126.943 26.1579 131.139 25.5203 133.396 22.0066C135.309 19.086 134.334 14.8518 130.469 12.8175C128.524 11.7973 124.182 11.0193 122.766 10.7004C122.405 10.6309 122.058 10.5016 121.739 10.3178C121.504 10.1832 121.306 9.99145 121.163 9.76025C121.021 9.52905 120.939 9.2658 120.925 8.9947C120.911 8.72359 120.966 8.45332 121.083 8.20872C121.201 7.96413 121.378 7.75305 121.599 7.5949C122.243 7.19316 123.206 7.09113 124.405 7.76707Z"></path>
</g>
<defs>
<clipPath id="clip0_1104_31">
<rect fill="white" height="26.1579" width="142"></rect>
</clipPath>
</defs>
</svg>
