<?xml version="1.0" encoding="UTF-8" standalone="no"?>
<!-- Created with Inkscape (http://www.inkscape.org/) -->

<svg
   version="1.1"
   id="svg2"
   width="960"
   height="198.74667"
   viewBox="0 0 960 198.74667"
   sodipodi:docname="WAG_Signature_logo_RGB.svg"
   inkscape:version="1.2 (dc2aedaf03, 2022-05-15)"
   xmlns:inkscape="http://www.inkscape.org/namespaces/inkscape"
   xmlns:sodipodi="http://sodipodi.sourceforge.net/DTD/sodipodi-0.dtd"
   xmlns="http://www.w3.org/2000/svg"
   xmlns:svg="http://www.w3.org/2000/svg">
  <defs
     id="defs6" />
  <sodipodi:namedview
     id="namedview4"
     pagecolor="#ffffff"
     bordercolor="#666666"
     borderopacity="1.0"
     inkscape:showpageshadow="2"
     inkscape:pageopacity="0.0"
     inkscape:pagecheckerboard="0"
     inkscape:deskcolor="#d1d1d1"
     showgrid="false"
     inkscape:zoom="1.2989583"
     inkscape:cx="479.61508"
     inkscape:cy="99.310345"
     inkscape:window-width="2560"
     inkscape:window-height="1387"
     inkscape:window-x="1912"
     inkscape:window-y="-8"
     inkscape:window-maximized="1"
     inkscape:current-layer="g10">
    <inkscape:page
       x="0"
       y="0"
       id="page8"
       width="960"
       height="198.74667" />
  </sodipodi:namedview>
  <g
     id="g10"
     inkscape:groupmode="layer"
     inkscape:label="Page 1"
     transform="matrix(1.3333333,0,0,-1.3333333,0,198.74667)">
    <g
       id="g12"
       transform="scale(0.1)">
      <path
         d="m 5013.88,706.465 c 0,109.39 166.25,278.402 249.42,278.402 22.82,0 37.65,-9.793 37.65,-33.012 0,-60.589 -128.09,-168.66 -287.07,-245.39 m -410.04,278.082 c 22.81,0 37.65,-9.789 37.65,-33.02 0,-60.589 -128.1,-168.64 -287.08,-245.39 0,109.398 166.25,278.41 249.43,278.41 m -1694,-290.539 c 0,130.476 198.32,274.637 351.78,274.637 30.37,0 60.93,-5.137 88.02,-16.161 -180.17,-287.269 -439.8,-401.5 -439.8,-258.476 M 2739.02,92.6016 c -17.55,0 -28.83,8.7774 -28.83,27.4184 0,40.64 79.8,146.339 289.69,221.878 C 2910.67,196.148 2806.85,92.6016 2739.02,92.6016 M 1560.41,694.008 c 0,125.969 195.87,275.117 352.8,275.117 31.61,0 61.39,-5.187 87.13,-16.641 C 1810.57,653.926 1560.41,555.805 1560.41,694.008 m 1221.94,576.012 c 17.31,0 24.89,-8.66 24.89,-24.89 0,-74.67 -178.55,-306.243 -358.18,-452.325 45.45,159.07 248.88,477.215 333.29,477.215 M 6838.07,611.727 c 135.68,170.347 -42.06,419.363 150.05,486.863 -4.45,47.86 -49.32,76.46 -106.59,76.46 -51.62,0 -106.85,-28.21 -142.18,-73.78 -202.38,-261.145 -412.49,-462.262 -532.68,-462.262 -40.04,0 -54.1,18.398 -54.1,49.769 0,97.399 122.28,240.239 216.43,339.793 11.9,12.98 17.31,25.98 17.31,37.88 0,29.22 -33.54,48.69 -74.67,48.69 -103.38,0 -318.01,-163.613 -476.58,-313.015 56.8,107.281 119.85,192.672 119.85,238.925 0,48.71 -50.86,62.77 -109.3,61.68 -226.36,-300.894 -516.81,-523.195 -703.25,-523.195 -48.27,0 -80.51,16.289 -100.74,40.36 237.41,97.031 435.66,259.082 435.66,378.679 0,74.096 -62.15,107.066 -149.23,107.066 -223.57,0 -506.42,-237.874 -520.41,-476.042 -215.45,-77.481 -375.94,-63.68 -425.48,-10.032 237.39,97.032 435.66,259.09 435.66,378.68 0,74.094 -62.16,107.054 -149.24,107.054 -225.5,0 -511.32,-241.952 -520.75,-482.175 -107.87,-33.16 -230.51,-47.738 -230.51,41.16 0,146.653 219.67,267.082 219.67,364.675 0,27.06 -11.91,49.79 -32.47,61.68 -70.06,-36.09 -174.21,-66 -249.97,-66 19.48,60.59 -1.08,108.21 -60.59,108.21 -87.66,0 -154.5,-98.47 -154.5,-178.553 0,-35.129 12.96,-59.551 34.18,-75.699 -86.94,-116.973 -197.1,-224 -345.66,-309.032 44.36,92 78.71,191.051 126.43,330.86 115.28,68 173.79,206.484 -58.5,206.484 -190.43,0 -400.77,-114.433 -532.4,-268.344 -171.87,-200.949 -381.15,-313.171 -418.27,-160.679 283.78,213.48 547.65,515.243 544.75,665.553 -1.04,54.36 -33.4,91.29 -109.53,91.29 -180.16,0 -600.32,-409.57 -636,-774.125 -300.79,-161.07 -266.71,92.7 -174.75,226.219 133.65,68.614 226.15,220.086 -23.09,220.086 -361.64,0 -659.3,-336.273 -654.27,-551.383 1.49,-63.691 33.48,-116.238 101.13,-116.265 77.51,-0.063 201.93,53.664 332.97,189.054 -25.23,-129.671 4.81,-189.054 111.13,-189.054 86.44,0 197.19,43.476 314.24,110.765 19.44,-60.539 69.94,-110.765 169.16,-110.765 102.98,0 229.91,81.086 329.28,185.754 -5.11,-23.219 -7.81,-46.489 -7.81,-69.59 0,-75.235 40.39,-116.137 100.33,-116.164 67.53,-0.051 168.63,53.554 279.94,158.613 -17.51,-47.777 -37.53,-96.379 -61.08,-143.754 -239.49,-84.57 -486.51,-176.109 -486.51,-341.891 0,-70.3316 58.33,-112.2182812 131.91,-112.2182812 179.52,0 400.14,214.4372812 537.87,423.5582812 170.67,76.504 369.35,221.387 522.6,428.586 39.86,-0.968 84.06,5.899 124.94,16.649 -131.04,-139.239 -191.56,-229.41 -191.56,-317.059 0,-72.508 55.19,-112.484 152.58,-112.484 84.99,0 191.82,30.066 318.11,85.644 36.92,-56.605 113.9,-85.644 212.87,-85.644 147.64,0 310.98,50.398 437.64,102.676 28.06,-59.836 95.6,-102.676 203.9,-102.676 220.16,0 419.35,139.703 587.44,289.406 -75.89,-115.48 -188.81,-289.406 -30.06,-289.406 24.89,0 59.93,4.019 88.67,13.629 112.54,205.593 258.7,338.695 404.78,426.343 -120.12,-149.328 -169.89,-262.957 -169.89,-336.539 0,-68.164 42.2,-103.433 111.45,-103.433 210.93,0 458.73,216.804 672.05,465.023 10.94,-94.808 68.67,-196.527 -32.42,-284.82 -152.72,3.59 -238.13,-40.438 -237.97,-112.047 0.11,-44.109 37.06,-68.156 89.34,-68.156 53.14,0 105.28,15.437 153.67,39.207 85.54,-24.778 173.86,-51.36 277.07,-51.36 150.54,0 256.54,75.606 259.87,200.797 -86.32,-45.191 -225.44,-28.191 -361.92,-16.179"
         style="fill:#e62324;fill-opacity:1;fill-rule:nonzero;stroke:none"
         id="path14" />
      <path
         d="m 793.191,768.906 c 3.25,202.36 146.079,415.024 218.589,415.024 21.42,0 25.97,-13.91 25.97,-28.7 0,-69.25 -102.801,-254.304 -244.559,-386.324 m 718.739,721.714 c -67.5,0.37 -132.64,-40.49 -174.82,-101.82 199.29,-130.32 -44.9,-779.222 -405.04,-779.222 -43.16,0 -79.781,12.57 -104.281,38.238 194.961,175.622 335.801,414.444 335.801,555.284 0,72.01 -35.18,117.69 -117.63,117.69 -239.198,0 -491.39,-392.462 -444.608,-675.595 -150.821,-53.578 -225.774,13.442 -225.774,148.051 0,281.054 293.66,572.544 276.613,660.244 C 347.91,1359.42 109.77,1577.98 0,1222.28 c 147.91,80.48 284.441,-48.17 453.172,45.89 C 308.262,1101.01 162,864.336 163.969,664.457 165.27,533.637 235.93,439.262 389,439.262 c 86.922,0 177.121,30.437 263.941,80.086 37.2,-46.496 97.149,-80.086 188.77,-80.086 373.549,0 781.809,524.867 781.809,899.398 0,99.36 -39.43,151.56 -111.59,151.96"
         style="fill:#e62324;fill-opacity:1;fill-rule:nonzero;stroke:none"
         id="path16" />
    </g>
  </g>
</svg>
